{"title":"Anonymous 2011 BRRip 720p x264 AAC [VX] [P2PDL]","uid":7704044,"size":851614525,"categoryP":"video","categoryS":"hd___movies","magnet":"?xt=urn:btih:3487a545e0aa57caafc3b7ec18047a264d66dd43&amp;dn=Anonymous+2011+BRRip+720p+x264+AAC+%5BVX%5D+%5BP2PDL%5D&amp;tr=udp%3A%2F%2Ftracker.openbittorrent.com%3A80&amp;tr=udp%3A%2F%2Fopen.demonii.com%3A1337&amp;tr=udp%3A%2F%2Ftracker.coppersurfer.tk%3A6969&amp;tr=udp%3A%2F%2Fexodus.desync.com%3A6969","seeders":0,"leechers":1,"uploader":"Vitamin_X","files":-1,"time":1349631525,"description":"Cover: \n &lt;a href=&quot;\nhttp://i.imgur.com/e75CY.png&quot; rel=&quot;nofollow&quot; target=&quot;_NEW&quot;&gt;\nhttp://i.imgur.com/e75CY.png&lt;/a&gt;\n\n\nRelease Title: Anonymous (2011) \n\n\nRatings: 6.8/10 | \n &lt;a href=&quot;\nhttp://www.imdb.com/title/tt1521197/&quot; rel=&quot;nofollow&quot; target=&quot;_NEW&quot;&gt;\nhttp://www.imdb.com/title/tt1521197/&lt;/a&gt;\n\n\nPlot: The theory that it was in fact Edward De Vere, Earl of Oxford, who penned Shakespeare's plays. Set against the backdrop of the succession of Queen Elizabeth I and the Essex rebellion against her.\n\nDirector: Roland Emmerich\n\nWriter: John Orloff\n\n\nStars:  Rhys Ifans, Vanessa Redgrave and David Thewlis\n\nGenres: Drama | History | Thriller\n\n\n\t\t\t\t\t\n\n\nGeneral\nFormat                         : MPEG-4\nFormat profile                 : Base Media / Version 2\nFile size                      : 805 MiB\nDuration                       : 2h 9mn\nOverall bit rate mode          : Variable\nOverall bit rate               : 866 Kbps\n\nSource                         : Anonymous.2011.720p.BluRay.x264-SPARKS (Thanks!)\n\n\nVideo\nID                             : 1\nFormat                         : AVC\nFormat/Info                    : Advanced Video Codec\nDuration                       : 2h 9mn\nBit rate mode                  : Variable\nBit rate                       : 750 Kbps\nMaximum bit rate               : 50.0 Mbps\nWidth                          : 1 276 pixels\nHeight                         : 544 pixels\nDisplay aspect ratio           : 2.35:1\nFrame rate mode                : Variable\nFrame rate                     : 23.976 fps\nScan type                      : Progressive\nStream size                    : 696 MiB (86%)\nWriting library                : x264 core 125\n\n\nAudio\nID                             : 2\nFormat                         : AAC\nFormat/Info                    : Advanced Audio Codec\nFormat profile                 : LC\nDuration                       : 2h 9mn\nBit rate mode                  : Variable\nBit rate                       : 112 Kbps\nChannel(s)                     : 2 channels\nChannel positions              : Front: L R\nSampling rate                  : 48.0 KHz\nStream size                    : 104 MiB (13%)\nLanguage                       : English\n\n\n\nSubtitle                       : Yes (English)\n\n\nScreens:\n\n &lt;a href=&quot;\nhttp://i.imgur.com/NjOkK.png&quot; rel=&quot;nofollow&quot; target=&quot;_NEW&quot;&gt;\nhttp://i.imgur.com/NjOkK.png&lt;/a&gt; &lt;a href=&quot;\nhttp://i.imgur.com/KLHSW.png&quot; rel=&quot;nofollow&quot; target=&quot;_NEW&quot;&gt;\nhttp://i.imgur.com/KLHSW.png&lt;/a&gt; &lt;a href=&quot;\nhttp://i.imgur.com/47Jkv.jpg&quot; rel=&quot;nofollow&quot; target=&quot;_NEW&quot;&gt;\nhttp://i.imgur.com/47Jkv.jpg&lt;/a&gt; &lt;a href=&quot;\nhttp://i.imgur.com/Ck5vC.png&quot; rel=&quot;nofollow&quot; target=&quot;_NEW&quot;&gt;\nhttp://i.imgur.com/Ck5vC.png&lt;/a&gt; &lt;a href=&quot;\nhttp://i.imgur.com/JBfdT.png&quot; rel=&quot;nofollow&quot; target=&quot;_NEW&quot;&gt;\nhttp://i.imgur.com/JBfdT.png&lt;/a&gt;\n\n------------------------------------------------------------------------\n\n\nNotes:\n\n* Best played on VLC Media Player.\n* Install shark007 codecs in case of any kind of problem in playback (For non-VLC Media Player users).\n* Alternatively, install Core AVC codecs, the fastest decoder that there is coupled with Community Center Codec Pack and play on Windows Media Player Classic.\n* Read NFO\n* Help in seeding this torrent as much as you can. \n\n\n\nGreets to: srkfan, VYTO, MgB, staff members at ExtraTorrent, TPB,KAT, 1337x, PublicHD, Ahashare,\nSilverTorrent, TorrentMafia, P2PDL, and all others\n\n\nEncoder Notes: Looking For Early Access To Anything You Can Provide DVDScr, R5, DVDRips, BluRay, Direct Audio, Early Music\nReleases, Seedboxes, Links, Dedicated Servers anything u can provide, Advance / Promo CDs/DVDs. If You Got anything to\noffer contact me at &quot;&lt;a class=&quot;__cf_email__&quot; href=&quot;/cdn-cgi/l/email-protection&quot; data-cfemail=&quot;3d5e5253495c5e497d4954534450135848&quot;&gt;[email&amp;#160;protected]&lt;/a&gt;&lt;script cf-hash='f9e31' type=&quot;text/javascript&quot;&gt;\n/* &lt;![CDATA[ */!function(){try{var t=&quot;currentScript&quot;in document?document.currentScript:function(){for(var t=document.getElementsByTagName(&quot;script&quot;),e=t.length;e--;)if(t[e].getAttribute(&quot;cf-hash&quot;))return t[e]}();if(t&amp;&amp;t.previousSibling){var e,r,n,i,c=t.previousSibling,a=c.getAttribute(&quot;data-cfemail&quot;);if(a){for(e=&quot;&quot;,r=parseInt(a.substr(0,2),16),n=2;a.length-n;n+=2)i=parseInt(a.substr(n,2),16)^r,e+=String.fromCharCode(i);e=document.createTextNode(e),c.parentNode.replaceChild(e,c)}}}catch(u){}}();/* ]]&gt; */&lt;/script&gt;&quot;\n\n\nFacebook Fan Page: www . facebook . com / p2pdl\n\n                  Enhanced for best viewing experience. Enjoy!","torrent":{"xt":"urn:btih:3487a545e0aa57caafc3b7ec18047a264d66dd43","amp;dn":"Anonymous+2011+BRRip+720p+x264+AAC+%5BVX%5D+%5BP2PDL%5D","amp;tr":["udp%3A%2F%2Ftracker.openbittorrent.com%3A80","udp%3A%2F%2Fopen.demonii.com%3A1337","udp%3A%2F%2Ftracker.coppersurfer.tk%3A6969","udp%3A%2F%2Fexodus.desync.com%3A6969"],"infoHash":"3487a545e0aa57caafc3b7ec18047a264d66dd43","infoHashBuffer":{"type":"Buffer","data":[52,135,165,69,224,170,87,202,175,195,183,236,24,4,122,38,77,102,221,67]},"announce":[],"urlList":[]}}